# AST/ASF file generated using VICON BodyLanguage
# -----------------------------------------------
:version 1.10
:name VICON
:units
  mass 1.0
  length 0.45
  angle deg
:documentation
   .ast/.asf automatically generated from VICON data using
   VICON BodyBuilder and BodyLanguage model FoxedUp or BRILLIANT.MOD
:root
   order TX TY TZ RX RY RZ
   axis XYZ
   position 0 0 0  
   orientation 0 0 0 
:bonedata
  begin
     id 1 
     name lhipjoint
     direction 0.611823 -0.767273 0.19226 
     length 2.47422 
     axis 0 0 0  XYZ
  end
  begin
     id 2 
     name lfemur
     direction 0.34202 -0.939693 0  
     length 7.40835  
     axis 0 0 20  XYZ
    dof rx ry rz
    limits (-160.0 20.0)
           (-70.0 70.0)
           (-60.0 70.0)
  end
  begin
     id 3 
     name ltibia
     direction 0.34202 -0.939693 0   
     length 8.03679   
     axis 0 0 20   XYZ
    dof rx
    limits (-10.0 170.0)
  end
  begin
     id 4 
     name lfoot
     direction 0.0883598 -0.242766 0.966052   
     length 2.06694   
     axis -90 7.62852e-016 20   XYZ
    dof rx rz
    limits (-45.0 90.0)
           (-70.0 20.0)
  end
  begin
     id 5 
     name ltoes
     direction 1.53617e-011 -4.21699e-011 1   
     length 1.03711   
     axis -90 7.62852e-016 20   XYZ
    dof rx
    limits (-90.0 20.0)
  end
  begin
     id 6 
     name rhipjoint
     direction -0.590066 -0.783143 0.196236   
     length 2.42408  
     axis 0 0 0  XYZ 
  end
  begin
     id 7 
     name rfemur
     direction -0.34202 -0.939693 0   
     length 7.88987   
     axis 0 0 -20   XYZ
    dof rx ry rz
    limits (-160.0 20.0)
           (-70.0 70.0)
           (-70.0 60.0)
  end
  begin
     id 8 
     name rtibia
     direction -0.34202 -0.939693 0   
     length 7.87584   
     axis 0 0 -20   XYZ
    dof rx
    limits (-10.0 170.0)
 end
 begin
     id 9 
     name rfoot
     direction -0.130476 -0.358481 0.924374   
     length 2.21745  
     axis -90 -7.62852e-016 -20   XYZ
    dof rx rz
    limits (-45.0 90.0)
           (-20.0 70.0)
  end
  begin
     id 10 
     name rtoes
     direction 8.20695e-005 8.89091e-005 1   
     length 1.09536   
     axis -90 -7.62852e-016 -20   XYZ
    dof rx
    limits (-90.0 20.0)
  end
  begin
     id 11 
     name lowerback
     direction 0.00981224 0.999875 -0.0124197   
     length 1.94808   
     axis 0 0 0   XYZ
    dof rx ry rz
    limits (-20.0 45.0)
           (-30.0 30.0)
           (-30.0 30.0)
  end
  begin
     id 12 
     name upperback
     direction 0.038911 0.999194 0.00981686   
     length 1.94415   
     axis 0 0 0   XYZ
    dof rx ry rz
    limits (-20.0 45.0)
           (-30.0 30.0)
           (-30.0 30.0)
  end
  begin
     id 13 
     name thorax
     direction 0.0330692 0.999334 0.0154389   
     length 1.94117   
     axis 0 0 0   XYZ
    dof rx ry rz
    limits (-20.0 45.0)
           (-30.0 30.0)
           (-30.0 30.0)
  end
  begin
     id 14 
     name lowerneck
     direction -0.0374305 0.99415 0.10132   
     length 1.87291   
     axis 0 0 0   XYZ
    dof rx ry rz
    limits (-20.0 45.0)
           (-30.0 30.0)
           (-30.0 30.0)
  end
  begin
     id 15 
     name upperneck
     direction 0.0120692 0.985979 -0.166431   
     length 1.89248   
     axis 0 0 0   XYZ
    dof rx ry rz
    limits (-20.0 45.0)
           (-30.0 30.0)
           (-30.0 30.0)
  end
  begin
     id 16
     name head
     direction 0.00629908 0.997708 -0.06737  
     length 1.90559  
     axis 0 0 0   XYZ
    dof rx ry rz
    limits (-20.0 45.0)
           (-30.0 30.0)
           (-30.0 30.0)
  end
  begin
     id 17 
     name lclavicle
     direction 0.961536 0.27308 -0.0295863  
     length 3.52757  
     axis 0 0 0   XYZ
    dof ry rz
    limits (-20.0 10.0)
           (0.0 20.0)
  end
  begin
     id 18 
     name lhumerus
     direction 1 -4.48969e-011 2.61153e-029   
     length 5.14845   
     axis 180 -30 -90   XYZ
    dof rx ry rz
    limits (-60.0 90.0)
           (-90.0 90.0)
           (-90.0 90.0)
  end
  begin
     id 19
     name lradius
     direction 1 -4.4896e-011 -3.37549e-027   
     length 3.43674   
     axis 180 -30 -90   XYZ
    dof rx
    limits (-10.0 170.0)
  end
  begin
     id 20
     name lwrist
     direction 1 -4.48969e-011 2.56952e-028   
     length 1.71837   
     axis -5.12785e-016 90 90   XYZ
    dof ry
    limits (-180.0 0.0)
 end
  begin
     id 21 
     name lhand
     direction 1 -4.49094e-011 5.13905e-028   
     length 0.588709   
     axis -3.27915e-016 90 90   XYZ
    dof rx rz
    limits (-90.0 90.0)
           (-45.0 45.0)
  end
  begin
     id 22 
     name lfingers
     direction 1 -4.48821e-011 1.02781e-027   
     length 0.474633   
     axis -6.5583e-016 90 90   XYZ
    dof rx
    limits (0.0 90.0)
  end
  begin
     id 23
     name lthumb
     direction 0.707107 -6.34922e-011 0.707107   
     length 0.68148   
     axis -90 45 2.85299e-015   XYZ
    dof rx rz
    limits (-45.0 45.0)
           (-45.0 45.0)
  end
  begin
     id 24 
     name rclavicle
     direction -0.940964 0.333844 -0.0559866   
     length 3.55948  
     axis 0 0 0   XYZ 
    dof ry rz
    limits (-10.0 20.0)
           (-20.0 0.0)
  end
  begin
     id 25 
     name rhumerus
     direction -1 -4.48973e-011 3.15259e-027  
     length 5.42185   
     axis 180 30 90   XYZ
    dof rx ry rz
    limits (-90.0 60.0)
           (-90.0 90.0)
           (-90.0 90.0)
  end
  begin
     id 26 
     name rradius
     direction -1 -4.48954e-011 -2.56271e-027   
     length 3.51317   
     axis 180 30 90   XYZ
    dof rx
    limits (-10.0 170.0)
  end
  begin
     id 27 
     name rwrist
     direction -1 -4.48943e-011 2.56952e-028   
     length 1.75658   
     axis -5.12785e-016 -90 -90   XYZ
    dof ry
    limits (-180.0 0.0)
  end
  begin
     id 28
     name rhand
     direction -1 -4.4912e-011 5.13905e-028   
     length 0.663187   
     axis -3.27915e-016 -90 -90   XYZ
    dof rx rz
    limits (-90.0 90.0)
           (-45.0 45.0)
  end
  begin
     id 29
     name rfingers
     direction -1 -4.48914e-011 1.02781e-027   
     length 0.534679   
     axis -6.5583e-016 -90 -90   XYZ
    dof rx
    limits (0.0 90.0)
  end
  begin
     id 30
     name rthumb
     direction -0.707107 -6.35033e-011 0.707107   
     length 0.767695   
     axis -90 -45 -2.85299e-015   XYZ
    dof rx rz
    limits (-45.0 45.0)
           (-45.0 45.0)
  end
:hierarchy
  begin
    root lhipjoint rhipjoint lowerback
    lhipjoint lfemur
    lfemur ltibia
    ltibia lfoot
    lfoot ltoes
    rhipjoint rfemur
    rfemur rtibia
    rtibia rfoot
    rfoot rtoes
    lowerback upperback
    upperback thorax
    thorax lowerneck lclavicle rclavicle
    lowerneck upperneck
    upperneck head
    lclavicle lhumerus
    lhumerus lradius
    lradius lwrist
    lwrist lhand lthumb
    lhand lfingers
    rclavicle rhumerus
    rhumerus rradius
    rradius rwrist
    rwrist rhand rthumb
    rhand rfingers
  end

#!OML:ASF F:\VICON\USERDATA\INSTALL\Justin_a\Justin_a.ASF
:FULLY-SPECIFIED
:DEGREES
1454
root -5.98219 24.431 -4.07449 -529.186 -191.564 539.279
lowerback 5.30856 0.651035 -2.00216
upperback 0.587546 0.818898 2.54748
thorax -2.43755 0.440664 3.6956
lowerneck -10.273 -2.23484 -3.00212
upperneck 40.8238 -1.66527 -1.5358
head 16.3953 -1.25527 -0.377301
rclavicle -1.39149e-015 -2.38542e-014
rhumerus -32.0741 -6.46242 -80.9307
rradius 47.6227
rwrist -3.48971
rhand -38.0582 19.0579
rfingers 7.12502
rthumb -11.0954 -10.6288
lclavicle -1.39149e-015 -2.38542e-014
lhumerus -37.9081 4.45604 85.0173
lradius 39.4261
lwrist 5.67989
lhand -20.1799 23.972
lfingers 7.12502
lthumb 6.16616 53.8622
rfemur -27.5161 3.2153 29.4985
rtibia 49.5481
rfoot -32.1559 -0.819915
rtoes 10.0638
lfemur -52.9391 8.02335 -19.4335
ltibia 78.3297
lfoot -15.2591 -5.34752
ltoes -19.4763
1455
root -5.96318 24.4338 -4.02751 -529.241 -191.463 539.343
lowerback 5.12161 0.591922 -1.79072
upperback 0.63013 0.750384 2.44462
thorax -2.2793 0.40104 3.47517
lowerneck -10.3337 -2.17824 -2.84614
upperneck 40.7595 -1.60259 -1.59762
head 16.3707 -1.21561 -0.422728
rclavicle 3.97569e-016 -4.77083e-015
rhumerus -31.83 -6.6699 -81.0788
rradius 47.5006
rwrist -3.40902
rhand -37.8632 19.0116
rfingers 7.12502
rthumb -10.9073 -10.6851
lclavicle 3.97569e-016 -4.77083e-015
lhumerus -37.8698 4.83487 84.718
lradius 39.1262
lwrist 5.72455
lhand -20.3092 23.7152
lfingers 7.12502
lthumb 6.04135 53.6091
rfemur -27.2648 2.90866 29.3921
rtibia 49.5568
rfoot -32.1233 -0.0431304
rtoes 11.4904
lfemur -53.6971 7.95664 -19.6828
ltibia 78.9018
lfoot -15.0466 -4.92626
ltoes -18.0061
1456
root -5.9457 24.4331 -3.97926 -529.299 -191.397 539.318
lowerback 4.939 0.583348 -1.59482
upperback 0.614335 0.750592 2.43104
thorax -2.19062 0.398348 3.35124
lowerneck -10.2016 -2.16667 -2.74168
upperneck 40.6583 -1.60909 -1.63428
head 16.2802 -1.20724 -0.455162
rclavicle 9.54166e-015 -2.38542e-015
rhumerus -31.7029 -6.81918 -81.1017
rradius 47.3878
rwrist -3.43749
rhand -37.9826 19.3883
rfingers 7.12502
rthumb -11.0225 -10.3023
lclavicle 9.54166e-015 -2.38542e-015
lhumerus -37.9259 5.07913 84.6101
lradius 38.834
lwrist 5.62771
lhand -20.1253 23.3764
lfingers 7.12502
lthumb 6.21888 53.2652
rfemur -27.0531 2.63731 29.3972
rtibia 49.5752
rfoot -32.0837 0.448175
rtoes 12.0377
lfemur -54.4222 7.88681 -19.8718
ltibia 79.284
lfoot -14.6581 -4.39117
ltoes -17.7011
1457
root -5.92638 24.4393 -3.93165 -529.436 -191.248 539.266
lowerback 4.86008 0.604475 -1.53406
upperback 0.578597 0.786216 2.56719
thorax -2.18692 0.416657 3.45609
lowerneck -10.0449 -2.18021 -2.91078
upperneck 40.654 -1.57182 -1.67999
head 16.2428 -1.22273 -0.436411
rclavicle -9.54166e-015 4.37326e-014
rhumerus -31.5958 -6.71291 -80.8783
rradius 47.2649
rwrist -3.56395
rhand -38.0594 19.641
rfingers 7.12502
rthumb -11.0966 -10.0456
lclavicle -9.54166e-015 4.37326e-014
lhumerus -38.12 5.33099 84.722
lradius 38.6196
lwrist 5.49952
lhand -19.8439 23.4573
lfingers 7.12502
lthumb 6.4905 53.3378
rfemur -26.7677 2.30936 29.4291
rtibia 49.629
rfoot -32.0756 0.85586
rtoes 11.6894
lfemur -54.9833 7.98643 -20.0745
ltibia 79.4378
lfoot -14.3217 -3.81808
ltoes -17.703
1458
root -5.90444 24.4419 -3.88159 -529.534 -191.13 539.12
lowerback 4.77584 0.612814 -1.29664
upperback 0.483706 0.813498 2.64807
thorax -2.23735 0.430279 3.40417
lowerneck -10.0311 -2.18196 -2.92261
upperneck 40.8816 -1.56602 -1.68753
head 16.3626 -1.22344 -0.440285
rclavicle 8.15017e-015 2.06736e-014
rhumerus -31.6976 -6.60596 -80.7734
rradius 47.3129
rwrist -3.72261
rhand -37.9643 19.3904
rfingers 7.12502
rthumb -11.0049 -10.3011
lclavicle 8.15017e-015 2.06736e-014
lhumerus -38.4505 5.32802 84.7345
lradius 38.4762
lwrist 5.52776
lhand -19.824 22.9656
lfingers 7.12502
lthumb 6.50971 52.8456
rfemur -26.5333 2.00283 29.5549
rtibia 49.7716
rfoot -32.1432 1.24778
rtoes 11.6689
lfemur -55.6204 8.06123 -20.1868
ltibia 79.4554
lfoot -13.8118 -3.47513
ltoes -17.0532
